<svg xmlns="http://www.w3.org/2000/svg" width="1800" height="1120" viewBox="0 0 1800 1120">
<defs>
  <filter id="softShadow" x="-20%" y="-20%" width="140%" height="150%">
    <feDropShadow dx="0" dy="8" stdDeviation="8" flood-color="#2F2B28" flood-opacity="0.10"/>
  </filter>
  <filter id="tinyShadow" x="-20%" y="-20%" width="140%" height="150%">
    <feDropShadow dx="0" dy="3" stdDeviation="4" flood-color="#2F2B28" flood-opacity="0.10"/>
  </filter>
  <marker id="arrow" markerWidth="13" markerHeight="13" refX="11" refY="6.5" orient="auto" markerUnits="strokeWidth">
    <path d="M1,1 L11,6.5 L1,12 Z" fill="#8C837A"/>
  </marker>
  <style>
    text { font-family: Helvetica, Arial, "Microsoft YaHei", sans-serif; letter-spacing: 0; }
  </style>
</defs>
<rect x="0" y="0" width="1800" height="1120" rx="0" fill="#EFE7DB" opacity="1" />
<rect x="48" y="42" width="1704" height="1036" rx="34" fill="#FBF8F2" opacity="1" stroke="#E4DBCF" stroke-width="1.5" filter="url(#softShadow)"/>
<text x="820" y="92" text-anchor="middle" font-size="38" font-weight="850" fill="#2F2B28" style="">
<tspan x="820" dy="0">CaptionLens: Semantic Slot Architecture</tspan>
</text>
<text x="820" y="130" text-anchor="middle" font-size="22" font-weight="560" fill="#746D66" style="">
<tspan x="820" dy="0">ResNet50 Encoder + Semantic Slot Memory Adapter + Transformer Decoder</tspan>
</text>
<rect x="1355" y="76" width="144" height="36" rx="18.0" fill="#F2DCD5" opacity="1" stroke="#D08C7A" stroke-width="1.5"/>
<text x="1427.0" y="100.48" text-anchor="middle" font-size="18" font-weight="700" fill="#2F2B28" style="">
<tspan x="1427.0" dy="0">Our Module</tspan>
</text>
<rect x="1516" y="76" width="116" height="36" rx="18.0" fill="#E5F1ED" opacity="1" stroke="#9FC2B4" stroke-width="1.5"/>
<text x="1574.0" y="100.48" text-anchor="middle" font-size="18" font-weight="700" fill="#2F2B28" style="">
<tspan x="1574.0" dy="0">MSCOCO17</tspan>
</text>
<rect x="90" y="190" width="190" height="210" rx="22" fill="#F6EFE5" opacity="1" stroke="#D8CFC4" stroke-width="1.5" filter="url(#softShadow)"/>
<text x="185.0" y="228" text-anchor="middle" font-size="24" font-weight="820" fill="#2F2B28" style="">
<tspan x="185.0" dy="0">Input Image</tspan>
</text>
<rect x="330" y="190" width="210" height="210" rx="22" fill="#FFFDF8" opacity="1" stroke="#D8CFC4" stroke-width="1.5" filter="url(#softShadow)"/>
<text x="435.0" y="228" text-anchor="middle" font-size="24" font-weight="820" fill="#2F2B28" style="">
<tspan x="435.0" dy="0">Preprocess</tspan>
</text>
<rect x="590" y="190" width="230" height="210" rx="22" fill="#DCE7F2" opacity="1" stroke="#D8CFC4" stroke-width="1.5" filter="url(#softShadow)"/>
<text x="705.0" y="228" text-anchor="middle" font-size="24" font-weight="820" fill="#2F2B28" style="">
<tspan x="705.0" dy="0">CNN Encoder</tspan>
</text>
<rect x="875" y="190" width="250" height="210" rx="22" fill="#FFFDF8" opacity="1" stroke="#D8CFC4" stroke-width="1.5" filter="url(#softShadow)"/>
<text x="1000.0" y="228" text-anchor="middle" font-size="24" font-weight="820" fill="#2F2B28" style="">
<tspan x="1000.0" dy="0">Visual Tokens</tspan>
</text>
<rect x="1180" y="174" width="310" height="242" rx="22" fill="#F2DCD5" opacity="1" stroke="#D08C7A" stroke-width="3" filter="url(#softShadow)"/>
<text x="1335.0" y="212" text-anchor="middle" font-size="24" font-weight="820" fill="#2F2B28" style="">
<tspan x="1335.0" dy="0">Semantic Slot Memory</tspan>
</text>
<rect x="1540" y="190" width="200" height="210" rx="22" fill="#E4EEE7" opacity="1" stroke="#D8CFC4" stroke-width="1.5" filter="url(#softShadow)"/>
<text x="1640.0" y="228" text-anchor="middle" font-size="24" font-weight="820" fill="#2F2B28" style="">
<tspan x="1640.0" dy="0">Caption</tspan>
</text>
<rect x="122" y="255" width="126" height="92" rx="10" fill="#E9F0F2" opacity="1" stroke="#D5CCC2" stroke-width="1.2"/>
<path d="M132 333 L165 296 L189 322 L207 305 L240 333" fill="none" stroke="#6F8FB6" stroke-width="3" stroke-linecap="round" stroke-linejoin="round" opacity="1"/>
<circle cx="210" cy="278" r="12" fill="#D08C7A" opacity="0.85"/>
<text x="185" y="374" text-anchor="middle" font-size="18" font-weight="650" fill="#746D66" style="">
<tspan x="185" dy="0">RGB image</tspan>
</text>
<rect x="364" y="250" width="142" height="110" rx="14" fill="#F6EFE5" opacity="1" stroke="#D8CFC4" stroke-width="1.3"/>
<text x="435" y="286" text-anchor="middle" font-size="18" font-weight="650" fill="#2F2B28" style="">
<tspan x="435" dy="0">Resize</tspan>
<tspan x="435" dy="22.5">224 x 224</tspan>
</text>
<line x1="384" y1="320" x2="486" y2="320" stroke="#B8ADA2" stroke-width="2" stroke-linecap="round" opacity="1"/>
<text x="435" y="348" text-anchor="middle" font-size="16" font-weight="600" fill="#746D66" style="">
<tspan x="435" dy="0">Normalize</tspan>
<tspan x="435" dy="20.0">ImageNet mean/std</tspan>
</text>
<rect x="679" y="235" width="72" height="92" rx="8" fill="#DCE7F2" opacity="0.92" stroke="#6F8FB6" stroke-width="1.8"/>
<rect x="666" y="243" width="72" height="92" rx="8" fill="#DCE7F2" opacity="0.92" stroke="#6F8FB6" stroke-width="1.8"/>
<rect x="653" y="251" width="72" height="92" rx="8" fill="#DCE7F2" opacity="0.92" stroke="#6F8FB6" stroke-width="1.8"/>
<rect x="640" y="259" width="72" height="92" rx="8" fill="#DCE7F2" opacity="0.92" stroke="#6F8FB6" stroke-width="1.8"/>
<rect x="627" y="267" width="72" height="92" rx="8" fill="#DCE7F2" opacity="0.92" stroke="#6F8FB6" stroke-width="1.8"/>
<text x="705" y="374" text-anchor="middle" font-size="20" font-weight="800" fill="#6F8FB6" style="">
<tspan x="705" dy="0">ResNet50</tspan>
</text>
<text x="705" y="397" text-anchor="middle" font-size="16" font-weight="600" fill="#746D66" style="">
<tspan x="705" dy="0">regional features</tspan>
</text>
<rect x="915" y="245" width="8" height="8" rx="2" fill="#C7D8EA" opacity="0.95" stroke="#6F8FB6" stroke-width="0.7"/>
<rect x="927" y="245" width="8" height="8" rx="2" fill="#DCE7F2" opacity="0.95" stroke="#6F8FB6" stroke-width="0.7"/>
<rect x="939" y="245" width="8" height="8" rx="2" fill="#DCE7F2" opacity="0.95" stroke="#6F8FB6" stroke-width="0.7"/>
<rect x="951" y="245" width="8" height="8" rx="2" fill="#DCE7F2" opacity="0.95" stroke="#6F8FB6" stroke-width="0.7"/>
<rect x="963" y="245" width="8" height="8" rx="2" fill="#DCE7F2" opacity="0.95" stroke="#6F8FB6" stroke-width="0.7"/>
<rect x="975" y="245" width="8" height="8" rx="2" fill="#DCE7F2" opacity="0.95" stroke="#6F8FB6" stroke-width="0.7"/>
<rect x="987" y="245" width="8" height="8" rx="2" fill="#DCE7F2" opacity="0.95" stroke="#6F8FB6" stroke-width="0.7"/>
<rect x="999" y="245" width="8" height="8" rx="2" fill="#C7D8EA" opacity="0.95" stroke="#6F8FB6" stroke-width="0.7"/>
<rect x="1011" y="245" width="8" height="8" rx="2" fill="#DCE7F2" opacity="0.95" stroke="#6F8FB6" stroke-width="0.7"/>
<rect x="1023" y="245" width="8" height="8" rx="2" fill="#DCE7F2" opacity="0.95" stroke="#6F8FB6" stroke-width="0.7"/>
<rect x="1035" y="245" width="8" height="8" rx="2" fill="#DCE7F2" opacity="0.95" stroke="#6F8FB6" stroke-width="0.7"/>
<rect x="1047" y="245" width="8" height="8" rx="2" fill="#DCE7F2" opacity="0.95" stroke="#6F8FB6" stroke-width="0.7"/>
<rect x="1059" y="245" width="8" height="8" rx="2" fill="#DCE7F2" opacity="0.95" stroke="#6F8FB6" stroke-width="0.7"/>
<rect x="1071" y="245" width="8" height="8" rx="2" fill="#DCE7F2" opacity="0.95" stroke="#6F8FB6" stroke-width="0.7"/>
<rect x="915" y="257" width="8" height="8" rx="2" fill="#DCE7F2" opacity="0.95" stroke="#6F8FB6" stroke-width="0.7"/>
<rect x="927" y="257" width="8" height="8" rx="2" fill="#DCE7F2" opacity="0.95" stroke="#6F8FB6" stroke-width="0.7"/>
<rect x="939" y="257" width="8" height="8" rx="2" fill="#DCE7F2" opacity="0.95" stroke="#6F8FB6" stroke-width="0.7"/>
<rect x="951" y="257" width="8" height="8" rx="2" fill="#DCE7F2" opacity="0.95" stroke="#6F8FB6" stroke-width="0.7"/>
<rect x="963" y="257" width="8" height="8" rx="2" fill="#DCE7F2" opacity="0.95" stroke="#6F8FB6" stroke-width="0.7"/>
<rect x="975" y="257" width="8" height="8" rx="2" fill="#DCE7F2" opacity="0.95" stroke="#6F8FB6" stroke-width="0.7"/>
<rect x="987" y="257" width="8" height="8" rx="2" fill="#C7D8EA" opacity="0.95" stroke="#6F8FB6" stroke-width="0.7"/>
<rect x="999" y="257" width="8" height="8" rx="2" fill="#DCE7F2" opacity="0.95" stroke="#6F8FB6" stroke-width="0.7"/>
<rect x="1011" y="257" width="8" height="8" rx="2" fill="#DCE7F2" opacity="0.95" stroke="#6F8FB6" stroke-width="0.7"/>
<rect x="1023" y="257" width="8" height="8" rx="2" fill="#DCE7F2" opacity="0.95" stroke="#6F8FB6" stroke-width="0.7"/>
<rect x="1035" y="257" width="8" height="8" rx="2" fill="#DCE7F2" opacity="0.95" stroke="#6F8FB6" stroke-width="0.7"/>
<rect x="1047" y="257" width="8" height="8" rx="2" fill="#DCE7F2" opacity="0.95" stroke="#6F8FB6" stroke-width="0.7"/>
<rect x="1059" y="257" width="8" height="8" rx="2" fill="#DCE7F2" opacity="0.95" stroke="#6F8FB6" stroke-width="0.7"/>
<rect x="1071" y="257" width="8" height="8" rx="2" fill="#C7D8EA" opacity="0.95" stroke="#6F8FB6" stroke-width="0.7"/>
<rect x="915" y="269" width="8" height="8" rx="2" fill="#DCE7F2" opacity="0.95" stroke="#6F8FB6" stroke-width="0.7"/>
<rect x="927" y="269" width="8" height="8" rx="2" fill="#DCE7F2" opacity="0.95" stroke="#6F8FB6" stroke-width="0.7"/>
<rect x="939" y="269" width="8" height="8" rx="2" fill="#DCE7F2" opacity="0.95" stroke="#6F8FB6" stroke-width="0.7"/>
<rect x="951" y="269" width="8" height="8" rx="2" fill="#DCE7F2" opacity="0.95" stroke="#6F8FB6" stroke-width="0.7"/>
<rect x="963" y="269" width="8" height="8" rx="2" fill="#DCE7F2" opacity="0.95" stroke="#6F8FB6" stroke-width="0.7"/>
<rect x="975" y="269" width="8" height="8" rx="2" fill="#C7D8EA" opacity="0.95" stroke="#6F8FB6" stroke-width="0.7"/>
<rect x="987" y="269" width="8" height="8" rx="2" fill="#DCE7F2" opacity="0.95" stroke="#6F8FB6" stroke-width="0.7"/>
<rect x="999" y="269" width="8" height="8" rx="2" fill="#DCE7F2" opacity="0.95" stroke="#6F8FB6" stroke-width="0.7"/>
<rect x="1011" y="269" width="8" height="8" rx="2" fill="#DCE7F2" opacity="0.95" stroke="#6F8FB6" stroke-width="0.7"/>
<rect x="1023" y="269" width="8" height="8" rx="2" fill="#DCE7F2" opacity="0.95" stroke="#6F8FB6" stroke-width="0.7"/>
<rect x="1035" y="269" width="8" height="8" rx="2" fill="#DCE7F2" opacity="0.95" stroke="#6F8FB6" stroke-width="0.7"/>
<rect x="1047" y="269" width="8" height="8" rx="2" fill="#DCE7F2" opacity="0.95" stroke="#6F8FB6" stroke-width="0.7"/>
<rect x="1059" y="269" width="8" height="8" rx="2" fill="#C7D8EA" opacity="0.95" stroke="#6F8FB6" stroke-width="0.7"/>
<rect x="1071" y="269" width="8" height="8" rx="2" fill="#DCE7F2" opacity="0.95" stroke="#6F8FB6" stroke-width="0.7"/>
<rect x="915" y="281" width="8" height="8" rx="2" fill="#DCE7F2" opacity="0.95" stroke="#6F8FB6" stroke-width="0.7"/>
<rect x="927" y="281" width="8" height="8" rx="2" fill="#DCE7F2" opacity="0.95" stroke="#6F8FB6" stroke-width="0.7"/>
<rect x="939" y="281" width="8" height="8" rx="2" fill="#DCE7F2" opacity="0.95" stroke="#6F8FB6" stroke-width="0.7"/>
<rect x="951" y="281" width="8" height="8" rx="2" fill="#DCE7F2" opacity="0.95" stroke="#6F8FB6" stroke-width="0.7"/>
<rect x="963" y="281" width="8" height="8" rx="2" fill="#C7D8EA" opacity="0.95" stroke="#6F8FB6" stroke-width="0.7"/>
<rect x="975" y="281" width="8" height="8" rx="2" fill="#DCE7F2" opacity="0.95" stroke="#6F8FB6" stroke-width="0.7"/>
<rect x="987" y="281" width="8" height="8" rx="2" fill="#DCE7F2" opacity="0.95" stroke="#6F8FB6" stroke-width="0.7"/>
<rect x="999" y="281" width="8" height="8" rx="2" fill="#DCE7F2" opacity="0.95" stroke="#6F8FB6" stroke-width="0.7"/>
<rect x="1011" y="281" width="8" height="8" rx="2" fill="#DCE7F2" opacity="0.95" stroke="#6F8FB6" stroke-width="0.7"/>
<rect x="1023" y="281" width="8" height="8" rx="2" fill="#DCE7F2" opacity="0.95" stroke="#6F8FB6" stroke-width="0.7"/>
<rect x="1035" y="281" width="8" height="8" rx="2" fill="#DCE7F2" opacity="0.95" stroke="#6F8FB6" stroke-width="0.7"/>
<rect x="1047" y="281" width="8" height="8" rx="2" fill="#C7D8EA" opacity="0.95" stroke="#6F8FB6" stroke-width="0.7"/>
<rect x="1059" y="281" width="8" height="8" rx="2" fill="#DCE7F2" opacity="0.95" stroke="#6F8FB6" stroke-width="0.7"/>
<rect x="1071" y="281" width="8" height="8" rx="2" fill="#DCE7F2" opacity="0.95" stroke="#6F8FB6" stroke-width="0.7"/>
<rect x="915" y="293" width="8" height="8" rx="2" fill="#DCE7F2" opacity="0.95" stroke="#6F8FB6" stroke-width="0.7"/>
<rect x="927" y="293" width="8" height="8" rx="2" fill="#DCE7F2" opacity="0.95" stroke="#6F8FB6" stroke-width="0.7"/>
<rect x="939" y="293" width="8" height="8" rx="2" fill="#DCE7F2" opacity="0.95" stroke="#6F8FB6" stroke-width="0.7"/>
<rect x="951" y="293" width="8" height="8" rx="2" fill="#C7D8EA" opacity="0.95" stroke="#6F8FB6" stroke-width="0.7"/>
<rect x="963" y="293" width="8" height="8" rx="2" fill="#DCE7F2" opacity="0.95" stroke="#6F8FB6" stroke-width="0.7"/>
<rect x="975" y="293" width="8" height="8" rx="2" fill="#DCE7F2" opacity="0.95" stroke="#6F8FB6" stroke-width="0.7"/>
<rect x="987" y="293" width="8" height="8" rx="2" fill="#DCE7F2" opacity="0.95" stroke="#6F8FB6" stroke-width="0.7"/>
<rect x="999" y="293" width="8" height="8" rx="2" fill="#DCE7F2" opacity="0.95" stroke="#6F8FB6" stroke-width="0.7"/>
<rect x="1011" y="293" width="8" height="8" rx="2" fill="#DCE7F2" opacity="0.95" stroke="#6F8FB6" stroke-width="0.7"/>
<rect x="1023" y="293" width="8" height="8" rx="2" fill="#DCE7F2" opacity="0.95" stroke="#6F8FB6" stroke-width="0.7"/>
<rect x="1035" y="293" width="8" height="8" rx="2" fill="#C7D8EA" opacity="0.95" stroke="#6F8FB6" stroke-width="0.7"/>
<rect x="1047" y="293" width="8" height="8" rx="2" fill="#DCE7F2" opacity="0.95" stroke="#6F8FB6" stroke-width="0.7"/>
<rect x="1059" y="293" width="8" height="8" rx="2" fill="#DCE7F2" opacity="0.95" stroke="#6F8FB6" stroke-width="0.7"/>
<rect x="1071" y="293" width="8" height="8" rx="2" fill="#DCE7F2" opacity="0.95" stroke="#6F8FB6" stroke-width="0.7"/>
<rect x="915" y="305" width="8" height="8" rx="2" fill="#DCE7F2" opacity="0.95" stroke="#6F8FB6" stroke-width="0.7"/>
<rect x="927" y="305" width="8" height="8" rx="2" fill="#DCE7F2" opacity="0.95" stroke="#6F8FB6" stroke-width="0.7"/>
<rect x="939" y="305" width="8" height="8" rx="2" fill="#C7D8EA" opacity="0.95" stroke="#6F8FB6" stroke-width="0.7"/>
<rect x="951" y="305" width="8" height="8" rx="2" fill="#DCE7F2" opacity="0.95" stroke="#6F8FB6" stroke-width="0.7"/>
<rect x="963" y="305" width="8" height="8" rx="2" fill="#DCE7F2" opacity="0.95" stroke="#6F8FB6" stroke-width="0.7"/>
<rect x="975" y="305" width="8" height="8" rx="2" fill="#DCE7F2" opacity="0.95" stroke="#6F8FB6" stroke-width="0.7"/>
<rect x="987" y="305" width="8" height="8" rx="2" fill="#DCE7F2" opacity="0.95" stroke="#6F8FB6" stroke-width="0.7"/>
<rect x="999" y="305" width="8" height="8" rx="2" fill="#DCE7F2" opacity="0.95" stroke="#6F8FB6" stroke-width="0.7"/>
<rect x="1011" y="305" width="8" height="8" rx="2" fill="#DCE7F2" opacity="0.95" stroke="#6F8FB6" stroke-width="0.7"/>
<rect x="1023" y="305" width="8" height="8" rx="2" fill="#C7D8EA" opacity="0.95" stroke="#6F8FB6" stroke-width="0.7"/>
<rect x="1035" y="305" width="8" height="8" rx="2" fill="#DCE7F2" opacity="0.95" stroke="#6F8FB6" stroke-width="0.7"/>
<rect x="1047" y="305" width="8" height="8" rx="2" fill="#DCE7F2" opacity="0.95" stroke="#6F8FB6" stroke-width="0.7"/>
<rect x="1059" y="305" width="8" height="8" rx="2" fill="#DCE7F2" opacity="0.95" stroke="#6F8FB6" stroke-width="0.7"/>
<rect x="1071" y="305" width="8" height="8" rx="2" fill="#DCE7F2" opacity="0.95" stroke="#6F8FB6" stroke-width="0.7"/>
<rect x="915" y="317" width="8" height="8" rx="2" fill="#DCE7F2" opacity="0.95" stroke="#6F8FB6" stroke-width="0.7"/>
<rect x="927" y="317" width="8" height="8" rx="2" fill="#C7D8EA" opacity="0.95" stroke="#6F8FB6" stroke-width="0.7"/>
<rect x="939" y="317" width="8" height="8" rx="2" fill="#DCE7F2" opacity="0.95" stroke="#6F8FB6" stroke-width="0.7"/>
<rect x="951" y="317" width="8" height="8" rx="2" fill="#DCE7F2" opacity="0.95" stroke="#6F8FB6" stroke-width="0.7"/>
<rect x="963" y="317" width="8" height="8" rx="2" fill="#DCE7F2" opacity="0.95" stroke="#6F8FB6" stroke-width="0.7"/>
<rect x="975" y="317" width="8" height="8" rx="2" fill="#DCE7F2" opacity="0.95" stroke="#6F8FB6" stroke-width="0.7"/>
<rect x="987" y="317" width="8" height="8" rx="2" fill="#DCE7F2" opacity="0.95" stroke="#6F8FB6" stroke-width="0.7"/>
<rect x="999" y="317" width="8" height="8" rx="2" fill="#DCE7F2" opacity="0.95" stroke="#6F8FB6" stroke-width="0.7"/>
<rect x="1011" y="317" width="8" height="8" rx="2" fill="#C7D8EA" opacity="0.95" stroke="#6F8FB6" stroke-width="0.7"/>
<rect x="1023" y="317" width="8" height="8" rx="2" fill="#DCE7F2" opacity="0.95" stroke="#6F8FB6" stroke-width="0.7"/>
<rect x="1035" y="317" width="8" height="8" rx="2" fill="#DCE7F2" opacity="0.95" stroke="#6F8FB6" stroke-width="0.7"/>
<rect x="1047" y="317" width="8" height="8" rx="2" fill="#DCE7F2" opacity="0.95" stroke="#6F8FB6" stroke-width="0.7"/>
<rect x="1059" y="317" width="8" height="8" rx="2" fill="#DCE7F2" opacity="0.95" stroke="#6F8FB6" stroke-width="0.7"/>
<rect x="1071" y="317" width="8" height="8" rx="2" fill="#DCE7F2" opacity="0.95" stroke="#6F8FB6" stroke-width="0.7"/>
<rect x="915" y="329" width="8" height="8" rx="2" fill="#C7D8EA" opacity="0.95" stroke="#6F8FB6" stroke-width="0.7"/>
<rect x="927" y="329" width="8" height="8" rx="2" fill="#DCE7F2" opacity="0.95" stroke="#6F8FB6" stroke-width="0.7"/>
<rect x="939" y="329" width="8" height="8" rx="2" fill="#DCE7F2" opacity="0.95" stroke="#6F8FB6" stroke-width="0.7"/>
<rect x="951" y="329" width="8" height="8" rx="2" fill="#DCE7F2" opacity="0.95" stroke="#6F8FB6" stroke-width="0.7"/>
<rect x="963" y="329" width="8" height="8" rx="2" fill="#DCE7F2" opacity="0.95" stroke="#6F8FB6" stroke-width="0.7"/>
<rect x="975" y="329" width="8" height="8" rx="2" fill="#DCE7F2" opacity="0.95" stroke="#6F8FB6" stroke-width="0.7"/>
<rect x="987" y="329" width="8" height="8" rx="2" fill="#DCE7F2" opacity="0.95" stroke="#6F8FB6" stroke-width="0.7"/>
<rect x="999" y="329" width="8" height="8" rx="2" fill="#C7D8EA" opacity="0.95" stroke="#6F8FB6" stroke-width="0.7"/>
<rect x="1011" y="329" width="8" height="8" rx="2" fill="#DCE7F2" opacity="0.95" stroke="#6F8FB6" stroke-width="0.7"/>
<rect x="1023" y="329" width="8" height="8" rx="2" fill="#DCE7F2" opacity="0.95" stroke="#6F8FB6" stroke-width="0.7"/>
<rect x="1035" y="329" width="8" height="8" rx="2" fill="#DCE7F2" opacity="0.95" stroke="#6F8FB6" stroke-width="0.7"/>
<rect x="1047" y="329" width="8" height="8" rx="2" fill="#DCE7F2" opacity="0.95" stroke="#6F8FB6" stroke-width="0.7"/>
<rect x="1059" y="329" width="8" height="8" rx="2" fill="#DCE7F2" opacity="0.95" stroke="#6F8FB6" stroke-width="0.7"/>
<rect x="1071" y="329" width="8" height="8" rx="2" fill="#DCE7F2" opacity="0.95" stroke="#6F8FB6" stroke-width="0.7"/>
<rect x="915" y="341" width="8" height="8" rx="2" fill="#DCE7F2" opacity="0.95" stroke="#6F8FB6" stroke-width="0.7"/>
<rect x="927" y="341" width="8" height="8" rx="2" fill="#DCE7F2" opacity="0.95" stroke="#6F8FB6" stroke-width="0.7"/>
<rect x="939" y="341" width="8" height="8" rx="2" fill="#DCE7F2" opacity="0.95" stroke="#6F8FB6" stroke-width="0.7"/>
<rect x="951" y="341" width="8" height="8" rx="2" fill="#DCE7F2" opacity="0.95" stroke="#6F8FB6" stroke-width="0.7"/>
<rect x="963" y="341" width="8" height="8" rx="2" fill="#DCE7F2" opacity="0.95" stroke="#6F8FB6" stroke-width="0.7"/>
<rect x="975" y="341" width="8" height="8" rx="2" fill="#DCE7F2" opacity="0.95" stroke="#6F8FB6" stroke-width="0.7"/>
<rect x="987" y="341" width="8" height="8" rx="2" fill="#C7D8EA" opacity="0.95" stroke="#6F8FB6" stroke-width="0.7"/>
<rect x="999" y="341" width="8" height="8" rx="2" fill="#DCE7F2" opacity="0.95" stroke="#6F8FB6" stroke-width="0.7"/>
<rect x="1011" y="341" width="8" height="8" rx="2" fill="#DCE7F2" opacity="0.95" stroke="#6F8FB6" stroke-width="0.7"/>
<rect x="1023" y="341" width="8" height="8" rx="2" fill="#DCE7F2" opacity="0.95" stroke="#6F8FB6" stroke-width="0.7"/>
<rect x="1035" y="341" width="8" height="8" rx="2" fill="#DCE7F2" opacity="0.95" stroke="#6F8FB6" stroke-width="0.7"/>
<rect x="1047" y="341" width="8" height="8" rx="2" fill="#DCE7F2" opacity="0.95" stroke="#6F8FB6" stroke-width="0.7"/>
<rect x="1059" y="341" width="8" height="8" rx="2" fill="#DCE7F2" opacity="0.95" stroke="#6F8FB6" stroke-width="0.7"/>
<rect x="1071" y="341" width="8" height="8" rx="2" fill="#C7D8EA" opacity="0.95" stroke="#6F8FB6" stroke-width="0.7"/>
<rect x="915" y="353" width="8" height="8" rx="2" fill="#DCE7F2" opacity="0.95" stroke="#6F8FB6" stroke-width="0.7"/>
<rect x="927" y="353" width="8" height="8" rx="2" fill="#DCE7F2" opacity="0.95" stroke="#6F8FB6" stroke-width="0.7"/>
<rect x="939" y="353" width="8" height="8" rx="2" fill="#DCE7F2" opacity="0.95" stroke="#6F8FB6" stroke-width="0.7"/>
<rect x="951" y="353" width="8" height="8" rx="2" fill="#DCE7F2" opacity="0.95" stroke="#6F8FB6" stroke-width="0.7"/>
<rect x="963" y="353" width="8" height="8" rx="2" fill="#DCE7F2" opacity="0.95" stroke="#6F8FB6" stroke-width="0.7"/>
<rect x="975" y="353" width="8" height="8" rx="2" fill="#C7D8EA" opacity="0.95" stroke="#6F8FB6" stroke-width="0.7"/>
<rect x="987" y="353" width="8" height="8" rx="2" fill="#DCE7F2" opacity="0.95" stroke="#6F8FB6" stroke-width="0.7"/>
<rect x="999" y="353" width="8" height="8" rx="2" fill="#DCE7F2" opacity="0.95" stroke="#6F8FB6" stroke-width="0.7"/>
<rect x="1011" y="353" width="8" height="8" rx="2" fill="#DCE7F2" opacity="0.95" stroke="#6F8FB6" stroke-width="0.7"/>
<rect x="1023" y="353" width="8" height="8" rx="2" fill="#DCE7F2" opacity="0.95" stroke="#6F8FB6" stroke-width="0.7"/>
<rect x="1035" y="353" width="8" height="8" rx="2" fill="#DCE7F2" opacity="0.95" stroke="#6F8FB6" stroke-width="0.7"/>
<rect x="1047" y="353" width="8" height="8" rx="2" fill="#DCE7F2" opacity="0.95" stroke="#6F8FB6" stroke-width="0.7"/>
<rect x="1059" y="353" width="8" height="8" rx="2" fill="#C7D8EA" opacity="0.95" stroke="#6F8FB6" stroke-width="0.7"/>
<rect x="1071" y="353" width="8" height="8" rx="2" fill="#DCE7F2" opacity="0.95" stroke="#6F8FB6" stroke-width="0.7"/>
<rect x="915" y="365" width="8" height="8" rx="2" fill="#DCE7F2" opacity="0.95" stroke="#6F8FB6" stroke-width="0.7"/>
<rect x="927" y="365" width="8" height="8" rx="2" fill="#DCE7F2" opacity="0.95" stroke="#6F8FB6" stroke-width="0.7"/>
<rect x="939" y="365" width="8" height="8" rx="2" fill="#DCE7F2" opacity="0.95" stroke="#6F8FB6" stroke-width="0.7"/>
<rect x="951" y="365" width="8" height="8" rx="2" fill="#DCE7F2" opacity="0.95" stroke="#6F8FB6" stroke-width="0.7"/>
<rect x="963" y="365" width="8" height="8" rx="2" fill="#C7D8EA" opacity="0.95" stroke="#6F8FB6" stroke-width="0.7"/>
<rect x="975" y="365" width="8" height="8" rx="2" fill="#DCE7F2" opacity="0.95" stroke="#6F8FB6" stroke-width="0.7"/>
<rect x="987" y="365" width="8" height="8" rx="2" fill="#DCE7F2" opacity="0.95" stroke="#6F8FB6" stroke-width="0.7"/>
<rect x="999" y="365" width="8" height="8" rx="2" fill="#DCE7F2" opacity="0.95" stroke="#6F8FB6" stroke-width="0.7"/>
<rect x="1011" y="365" width="8" height="8" rx="2" fill="#DCE7F2" opacity="0.95" stroke="#6F8FB6" stroke-width="0.7"/>
<rect x="1023" y="365" width="8" height="8" rx="2" fill="#DCE7F2" opacity="0.95" stroke="#6F8FB6" stroke-width="0.7"/>
<rect x="1035" y="365" width="8" height="8" rx="2" fill="#DCE7F2" opacity="0.95" stroke="#6F8FB6" stroke-width="0.7"/>
<rect x="1047" y="365" width="8" height="8" rx="2" fill="#C7D8EA" opacity="0.95" stroke="#6F8FB6" stroke-width="0.7"/>
<rect x="1059" y="365" width="8" height="8" rx="2" fill="#DCE7F2" opacity="0.95" stroke="#6F8FB6" stroke-width="0.7"/>
<rect x="1071" y="365" width="8" height="8" rx="2" fill="#DCE7F2" opacity="0.95" stroke="#6F8FB6" stroke-width="0.7"/>
<rect x="915" y="377" width="8" height="8" rx="2" fill="#DCE7F2" opacity="0.95" stroke="#6F8FB6" stroke-width="0.7"/>
<rect x="927" y="377" width="8" height="8" rx="2" fill="#DCE7F2" opacity="0.95" stroke="#6F8FB6" stroke-width="0.7"/>
<rect x="939" y="377" width="8" height="8" rx="2" fill="#DCE7F2" opacity="0.95" stroke="#6F8FB6" stroke-width="0.7"/>
<rect x="951" y="377" width="8" height="8" rx="2" fill="#C7D8EA" opacity="0.95" stroke="#6F8FB6" stroke-width="0.7"/>
<rect x="963" y="377" width="8" height="8" rx="2" fill="#DCE7F2" opacity="0.95" stroke="#6F8FB6" stroke-width="0.7"/>
<rect x="975" y="377" width="8" height="8" rx="2" fill="#DCE7F2" opacity="0.95" stroke="#6F8FB6" stroke-width="0.7"/>
<rect x="987" y="377" width="8" height="8" rx="2" fill="#DCE7F2" opacity="0.95" stroke="#6F8FB6" stroke-width="0.7"/>
<rect x="999" y="377" width="8" height="8" rx="2" fill="#DCE7F2" opacity="0.95" stroke="#6F8FB6" stroke-width="0.7"/>
<rect x="1011" y="377" width="8" height="8" rx="2" fill="#DCE7F2" opacity="0.95" stroke="#6F8FB6" stroke-width="0.7"/>
<rect x="1023" y="377" width="8" height="8" rx="2" fill="#DCE7F2" opacity="0.95" stroke="#6F8FB6" stroke-width="0.7"/>
<rect x="1035" y="377" width="8" height="8" rx="2" fill="#C7D8EA" opacity="0.95" stroke="#6F8FB6" stroke-width="0.7"/>
<rect x="1047" y="377" width="8" height="8" rx="2" fill="#DCE7F2" opacity="0.95" stroke="#6F8FB6" stroke-width="0.7"/>
<rect x="1059" y="377" width="8" height="8" rx="2" fill="#DCE7F2" opacity="0.95" stroke="#6F8FB6" stroke-width="0.7"/>
<rect x="1071" y="377" width="8" height="8" rx="2" fill="#DCE7F2" opacity="0.95" stroke="#6F8FB6" stroke-width="0.7"/>
<rect x="915" y="389" width="8" height="8" rx="2" fill="#DCE7F2" opacity="0.95" stroke="#6F8FB6" stroke-width="0.7"/>
<rect x="927" y="389" width="8" height="8" rx="2" fill="#DCE7F2" opacity="0.95" stroke="#6F8FB6" stroke-width="0.7"/>
<rect x="939" y="389" width="8" height="8" rx="2" fill="#C7D8EA" opacity="0.95" stroke="#6F8FB6" stroke-width="0.7"/>
<rect x="951" y="389" width="8" height="8" rx="2" fill="#DCE7F2" opacity="0.95" stroke="#6F8FB6" stroke-width="0.7"/>
<rect x="963" y="389" width="8" height="8" rx="2" fill="#DCE7F2" opacity="0.95" stroke="#6F8FB6" stroke-width="0.7"/>
<rect x="975" y="389" width="8" height="8" rx="2" fill="#DCE7F2" opacity="0.95" stroke="#6F8FB6" stroke-width="0.7"/>
<rect x="987" y="389" width="8" height="8" rx="2" fill="#DCE7F2" opacity="0.95" stroke="#6F8FB6" stroke-width="0.7"/>
<rect x="999" y="389" width="8" height="8" rx="2" fill="#DCE7F2" opacity="0.95" stroke="#6F8FB6" stroke-width="0.7"/>
<rect x="1011" y="389" width="8" height="8" rx="2" fill="#DCE7F2" opacity="0.95" stroke="#6F8FB6" stroke-width="0.7"/>
<rect x="1023" y="389" width="8" height="8" rx="2" fill="#C7D8EA" opacity="0.95" stroke="#6F8FB6" stroke-width="0.7"/>
<rect x="1035" y="389" width="8" height="8" rx="2" fill="#DCE7F2" opacity="0.95" stroke="#6F8FB6" stroke-width="0.7"/>
<rect x="1047" y="389" width="8" height="8" rx="2" fill="#DCE7F2" opacity="0.95" stroke="#6F8FB6" stroke-width="0.7"/>
<rect x="1059" y="389" width="8" height="8" rx="2" fill="#DCE7F2" opacity="0.95" stroke="#6F8FB6" stroke-width="0.7"/>
<rect x="1071" y="389" width="8" height="8" rx="2" fill="#DCE7F2" opacity="0.95" stroke="#6F8FB6" stroke-width="0.7"/>
<rect x="915" y="401" width="8" height="8" rx="2" fill="#DCE7F2" opacity="0.95" stroke="#6F8FB6" stroke-width="0.7"/>
<rect x="927" y="401" width="8" height="8" rx="2" fill="#C7D8EA" opacity="0.95" stroke="#6F8FB6" stroke-width="0.7"/>
<rect x="939" y="401" width="8" height="8" rx="2" fill="#DCE7F2" opacity="0.95" stroke="#6F8FB6" stroke-width="0.7"/>
<rect x="951" y="401" width="8" height="8" rx="2" fill="#DCE7F2" opacity="0.95" stroke="#6F8FB6" stroke-width="0.7"/>
<rect x="963" y="401" width="8" height="8" rx="2" fill="#DCE7F2" opacity="0.95" stroke="#6F8FB6" stroke-width="0.7"/>
<rect x="975" y="401" width="8" height="8" rx="2" fill="#DCE7F2" opacity="0.95" stroke="#6F8FB6" stroke-width="0.7"/>
<rect x="987" y="401" width="8" height="8" rx="2" fill="#DCE7F2" opacity="0.95" stroke="#6F8FB6" stroke-width="0.7"/>
<rect x="999" y="401" width="8" height="8" rx="2" fill="#DCE7F2" opacity="0.95" stroke="#6F8FB6" stroke-width="0.7"/>
<rect x="1011" y="401" width="8" height="8" rx="2" fill="#C7D8EA" opacity="0.95" stroke="#6F8FB6" stroke-width="0.7"/>
<rect x="1023" y="401" width="8" height="8" rx="2" fill="#DCE7F2" opacity="0.95" stroke="#6F8FB6" stroke-width="0.7"/>
<rect x="1035" y="401" width="8" height="8" rx="2" fill="#DCE7F2" opacity="0.95" stroke="#6F8FB6" stroke-width="0.7"/>
<rect x="1047" y="401" width="8" height="8" rx="2" fill="#DCE7F2" opacity="0.95" stroke="#6F8FB6" stroke-width="0.7"/>
<rect x="1059" y="401" width="8" height="8" rx="2" fill="#DCE7F2" opacity="0.95" stroke="#6F8FB6" stroke-width="0.7"/>
<rect x="1071" y="401" width="8" height="8" rx="2" fill="#DCE7F2" opacity="0.95" stroke="#6F8FB6" stroke-width="0.7"/>
<text x="1000" y="374" text-anchor="middle" font-size="17" font-weight="650" fill="#746D66" style="">
<tspan x="1000" dy="0">14 x 14 grid</tspan>
<tspan x="1000" dy="21.25">196 x 512 visual tokens</tspan>
</text>
<rect x="1210" y="246" width="46" height="34" rx="7" fill="#E8E4F3" opacity="1" stroke="#A8A0C8" stroke-width="1.2"/>
<text x="1233.0" y="268" text-anchor="middle" font-size="16" font-weight="650" fill="#2F2B28" style="">
<tspan x="1233.0" dy="0">q1</tspan>
</text>
<rect x="1263" y="246" width="46" height="34" rx="7" fill="#E8E4F3" opacity="1" stroke="#A8A0C8" stroke-width="1.2"/>
<text x="1286.0" y="268" text-anchor="middle" font-size="16" font-weight="650" fill="#2F2B28" style="">
<tspan x="1286.0" dy="0">q2</tspan>
</text>
<rect x="1316" y="246" width="54" height="34" rx="7" fill="#E8E4F3" opacity="1" stroke="#A8A0C8" stroke-width="1.2"/>
<text x="1343.0" y="268" text-anchor="middle" font-size="16" font-weight="650" fill="#2F2B28" style="">
<tspan x="1343.0" dy="0">...</tspan>
</text>
<rect x="1377" y="246" width="54" height="34" rx="7" fill="#E8E4F3" opacity="1" stroke="#A8A0C8" stroke-width="1.2"/>
<text x="1404.0" y="268" text-anchor="middle" font-size="16" font-weight="650" fill="#2F2B28" style="">
<tspan x="1404.0" dy="0">q16</tspan>
</text>
<text x="1336" y="230" text-anchor="middle" font-size="16" font-weight="700" fill="#746D66" style="">
<tspan x="1336" dy="0">learnable slot queries</tspan>
</text>
<rect x="1230" y="298" width="220" height="48" rx="12" fill="#FFFDF8" opacity="1" stroke="#D08C7A" stroke-width="1.7"/>
<text x="1340" y="322" text-anchor="middle" font-size="16" font-weight="720" fill="#2F2B28" style="">
<tspan x="1340" dy="0">Cross-Attention</tspan>
<tspan x="1340" dy="20.0">slots attend to visual tokens</tspan>
</text>
<rect x="1260" y="363" width="160" height="46" rx="12" fill="#E8E4F3" opacity="1" stroke="#A8A0C8" stroke-width="1.7"/>
<text x="1340" y="392" text-anchor="middle" font-size="17" font-weight="740" fill="#2F2B28" style="">
<tspan x="1340" dy="0">Slot Self-Attention</tspan>
</text>
<text x="1336" y="431" text-anchor="middle" font-size="16" font-weight="700" fill="#D08C7A" style="">
<tspan x="1336" dy="0">16 semantic slots + 196 visual tokens = 212 memory tokens</tspan>
</text>
<path d="M1266 280 C1248 288 1248 304 1256 320" fill="none" stroke="#A8A0C8" stroke-width="2.2" stroke-linecap="round" stroke-linejoin="round" opacity="0.78" marker-end="url(#arrow)"/>
<path d="M1434 346 C1460 358 1454 382 1422 386" fill="none" stroke="#A8A0C8" stroke-width="2.2" stroke-linecap="round" stroke-linejoin="round" opacity="0.78" marker-end="url(#arrow)"/>
<rect x="590" y="500" width="860" height="365" rx="24" fill="#FFFDF8" opacity="1" stroke="#D8CFC4" stroke-width="1.5" filter="url(#softShadow)"/>
<text x="1020" y="548" text-anchor="middle" font-size="27" font-weight="850" fill="#2F2B28" style="">
<tspan x="1020" dy="0">(b) Transformer Decoder with Enhanced Visual Memory</tspan>
</text>
<text x="1020" y="582" text-anchor="middle" font-size="18" font-weight="560" fill="#746D66" style="">
<tspan x="1020" dy="0">Self-Attention models word history; Cross-Attention aligns words with semantic-slot memory.</tspan>
</text>
<rect x="640" y="635" width="102" height="34" rx="7" fill="#E4EEE7" opacity="1" stroke="#8FAE9A" stroke-width="1.2"/>
<text x="691.0" y="657" text-anchor="middle" font-size="15" font-weight="650" fill="#2F2B28" style="">
<tspan x="691.0" dy="0">&lt;START&gt;</tspan>
</text>
<rect x="749" y="635" width="46" height="34" rx="7" fill="#E4EEE7" opacity="1" stroke="#8FAE9A" stroke-width="1.2"/>
<text x="772.0" y="657" text-anchor="middle" font-size="15" font-weight="650" fill="#2F2B28" style="">
<tspan x="772.0" dy="0">an</tspan>
</text>
<rect x="802" y="635" width="114" height="34" rx="7" fill="#E4EEE7" opacity="1" stroke="#8FAE9A" stroke-width="1.2"/>
<text x="859.0" y="657" text-anchor="middle" font-size="15" font-weight="650" fill="#2F2B28" style="">
<tspan x="859.0" dy="0">airplane</tspan>
</text>
<rect x="923" y="635" width="46" height="34" rx="7" fill="#E4EEE7" opacity="1" stroke="#8FAE9A" stroke-width="1.2"/>
<text x="946.0" y="657" text-anchor="middle" font-size="15" font-weight="650" fill="#2F2B28" style="">
<tspan x="946.0" dy="0">is</tspan>
</text>
<rect x="658" y="705" width="275" height="70" rx="15" fill="#E4EEE7" opacity="1" stroke="#8FAE9A" stroke-width="1.8"/>
<text x="795" y="733" text-anchor="middle" font-size="19" font-weight="800" fill="#2F2B28" style="">
<tspan x="795" dy="0">Masked Self-Attention</tspan>
</text>
<text x="795" y="759" text-anchor="middle" font-size="15" font-weight="600" fill="#746D66" style="">
<tspan x="795" dy="0">word-to-word context</tspan>
</text>
<rect x="1010" y="620" width="360" height="176" rx="18" fill="#E8E4F3" opacity="1" stroke="#A8A0C8" stroke-width="2"/>
<text x="1190" y="652" text-anchor="middle" font-size="22" font-weight="850" fill="#2F2B28" style="">
<tspan x="1190" dy="0">Cross-Attention</tspan>
</text>
<text x="1190" y="680" text-anchor="middle" font-size="16" font-weight="600" fill="#746D66" style="">
<tspan x="1190" dy="0">text tokens attend to enhanced memory</tspan>
</text>
<rect x="1040" y="716" width="78" height="34" rx="7" fill="#FFFDF8" opacity="1" stroke="#A8A0C8" stroke-width="1.2"/>
<text x="1079.0" y="738" text-anchor="middle" font-size="14" font-weight="650" fill="#2F2B28" style="">
<tspan x="1079.0" dy="0">slot1</tspan>
</text>
<rect x="1125" y="716" width="78" height="34" rx="7" fill="#FFFDF8" opacity="1" stroke="#A8A0C8" stroke-width="1.2"/>
<text x="1164.0" y="738" text-anchor="middle" font-size="14" font-weight="650" fill="#2F2B28" style="">
<tspan x="1164.0" dy="0">slot2</tspan>
</text>
<rect x="1210" y="716" width="54" height="34" rx="7" fill="#FFFDF8" opacity="1" stroke="#A8A0C8" stroke-width="1.2"/>
<text x="1237.0" y="738" text-anchor="middle" font-size="14" font-weight="650" fill="#2F2B28" style="">
<tspan x="1237.0" dy="0">...</tspan>
</text>
<rect x="1271" y="716" width="66" height="34" rx="7" fill="#FFFDF8" opacity="1" stroke="#A8A0C8" stroke-width="1.2"/>
<text x="1304.0" y="738" text-anchor="middle" font-size="14" font-weight="650" fill="#2F2B28" style="">
<tspan x="1304.0" dy="0">v196</tspan>
</text>
<path d="M935 740 L1010 740" fill="none" stroke="#8C837A" stroke-width="3" stroke-linecap="round" stroke-linejoin="round" opacity="1" marker-end="url(#arrow)"/>
<path d="M1190 796 L1190 836" fill="none" stroke="#8C837A" stroke-width="3" stroke-linecap="round" stroke-linejoin="round" opacity="1" marker-end="url(#arrow)"/>
<rect x="1086" y="836" width="208" height="48" rx="12" fill="#E4EEE7" opacity="1" stroke="#8FAE9A" stroke-width="1.6"/>
<text x="1190" y="866" text-anchor="middle" font-size="18" font-weight="800" fill="#2F2B28" style="">
<tspan x="1190" dy="0">Next-token logits</tspan>
</text>
<path d="M1000 402 C1000 458 1000 475 1000 500" fill="none" stroke="#AAA095" stroke-width="2.2" stroke-linecap="round" stroke-linejoin="round" opacity="0.85" stroke-dasharray="10 8" marker-end="url(#arrow)"/>
<text x="1044" y="478" text-anchor="start" font-size="15" font-weight="650" fill="#746D66" style="">
<tspan x="1044" dy="0">baseline passes raw 196 tokens</tspan>
</text>
<line x1="280" y1="295" x2="330" y2="295" stroke="#8C837A" stroke-width="3.4" stroke-linecap="round" opacity="1" marker-end="url(#arrow)"/>
<line x1="540" y1="295" x2="590" y2="295" stroke="#8C837A" stroke-width="3.4" stroke-linecap="round" opacity="1" marker-end="url(#arrow)"/>
<line x1="820" y1="295" x2="875" y2="295" stroke="#8C837A" stroke-width="3.4" stroke-linecap="round" opacity="1" marker-end="url(#arrow)"/>
<line x1="1125" y1="295" x2="1180" y2="295" stroke="#D08C7A" stroke-width="3.8" stroke-linecap="round" opacity="1" marker-end="url(#arrow)"/>
<line x1="1490" y1="295" x2="1540" y2="295" stroke="#8C837A" stroke-width="3.4" stroke-linecap="round" opacity="1" marker-end="url(#arrow)"/>
<rect x="1573" y="264" width="134" height="70" rx="14" fill="#FFFDF8" opacity="1" stroke="#8FAE9A" stroke-width="1.8"/>
<text x="1640" y="290" text-anchor="middle" font-size="18" font-weight="780" fill="#2F2B28" style="">
<tspan x="1640" dy="0">an airplane is</tspan>
<tspan x="1640" dy="22.5">parked on a runway</tspan>
</text>
<rect x="1562" y="358" width="78" height="34" rx="7" fill="#E4EEE7" opacity="1" stroke="#8FAE9A" stroke-width="1.2"/>
<text x="1601.0" y="380" text-anchor="middle" font-size="15" font-weight="650" fill="#2F2B28" style="">
<tspan x="1601.0" dy="0">&lt;END&gt;</tspan>
</text>
<rect x="90" y="910" width="1660" height="142" rx="24" fill="#F6EFE5" opacity="1" stroke="#D8CFC4" stroke-width="1.5"/>
<text x="128" y="952" text-anchor="start" font-size="24" font-weight="850" fill="#2F2B28" style="">
<tspan x="128" dy="0">(c) Empirical gain on MSCOCO 2017 validation</tspan>
</text>
<text x="128" y="986" text-anchor="start" font-size="18" font-weight="560" fill="#746D66" style="">
<tspan x="128" dy="0">Semantic slots compress visual regions into high-level memory.</tspan>
<tspan x="128" dy="22.5">Same 20-epoch setting as baseline.</tspan>
</text>
<rect x="885" y="930" width="286" height="96" rx="16" fill="#FFFDF8" opacity="1" stroke="#E0D5CA" stroke-width="1.5" filter="url(#softShadow)"/>
<text x="907" y="961" text-anchor="start" font-size="21" font-weight="800" fill="#2F2B28" style="">
<tspan x="907" dy="0">BLEU-4</tspan>
</text>
<text x="907" y="997" text-anchor="start" font-size="21" font-weight="750" fill="#746D66" style="">
<tspan x="907" dy="0">0.2821 -&gt; 0.2849</tspan>
</text>
<rect x="1097" y="977" width="62" height="28" rx="14.0" fill="#F2DCD5" opacity="1" stroke="#D08C7A" stroke-width="1.5"/>
<text x="1128.0" y="996.4" text-anchor="middle" font-size="15" font-weight="800" fill="#2F2B28" style="">
<tspan x="1128.0" dy="0">+0.99%</tspan>
</text>
<rect x="1205" y="930" width="286" height="96" rx="16" fill="#FFFDF8" opacity="1" stroke="#E0D5CA" stroke-width="1.5" filter="url(#softShadow)"/>
<text x="1227" y="961" text-anchor="start" font-size="21" font-weight="800" fill="#2F2B28" style="">
<tspan x="1227" dy="0">CIDEr</tspan>
</text>
<text x="1227" y="997" text-anchor="start" font-size="21" font-weight="750" fill="#746D66" style="">
<tspan x="1227" dy="0">0.8882 -&gt; 0.9111</tspan>
</text>
<rect x="1417" y="977" width="62" height="28" rx="14.0" fill="#F2DCD5" opacity="1" stroke="#D08C7A" stroke-width="1.5"/>
<text x="1448.0" y="996.4" text-anchor="middle" font-size="15" font-weight="800" fill="#2F2B28" style="">
<tspan x="1448.0" dy="0">+2.58%</tspan>
</text>
<rect x="1530" y="952" width="172" height="38" rx="19.0" fill="#E5F1ED" opacity="1" stroke="#9FC2B4" stroke-width="1.5"/>
<text x="1616.0" y="977.48" text-anchor="middle" font-size="18" font-weight="700" fill="#2F2B28" style="">
<tspan x="1616.0" dy="0">All metrics up</tspan>
</text>
<text x="1616" y="1007" text-anchor="middle" font-size="16" font-weight="600" fill="#746D66" style="">
<tspan x="1616" dy="0">Baseline: ResNet50 -&gt; Decoder</tspan>
</text>
<text x="900" y="174" text-anchor="middle" font-size="24" font-weight="820" fill="#2F2B28" style="">
<tspan x="900" dy="0">(a) End-to-end image captioning pipeline</tspan>
</text>
</svg>